<!-- Generator: Adobe Illustrator 19.1.1, SVG Export Plug-In  -->
<svg version="1.1"
	 xmlns="http://www.w3.org/2000/svg" xmlns:xlink="http://www.w3.org/1999/xlink" xmlns:a="http://ns.adobe.com/AdobeSVGViewerExtensions/3.0/"
	 x="0px" y="0px" width="245px" height="98px" viewBox="0 0 245 98" style="overflow:scroll;enable-background:new 0 0 245 98;"
	 xml:space="preserve">
<style type="text/css">
	.st0{fill:#FFFFFF;}
</style>
<defs>
</defs>
<g>
	<g>
		<path class="st0" d="M245,79.6V82h-6v15.8h-2.6V82h-6v-2.4H245L245,79.6z"/>
		<path class="st0" d="M214.2,82h5.1c2.7,0,4.2,1.2,4.2,3.2c0,2-1.6,3.3-4.3,3.3h-5.1V82L214.2,82z M219,90.9l5.3,6.8h3.1l-5.6-7.3
			c2.8-0.7,4.6-2.5,4.6-5.3c0-3.4-2.8-5.6-6.8-5.6h-7.7v18.2h2.5v-6.8H219L219,90.9z"/>
		<path class="st0" d="M196.9,95.5c-3.8,0-6.7-2.9-6.7-6.9c0-4,2.9-6.9,6.6-6.9c3.7,0,6.6,3,6.6,7C203.4,92.7,200.5,95.5,196.9,95.5
			L196.9,95.5L196.9,95.5z M196.9,79.3c-5.3,0-9.4,4.1-9.4,9.4c0,5.4,4.1,9.3,9.3,9.3c5.3,0,9.3-4.1,9.3-9.3
			C206.1,83.3,202,79.3,196.9,79.3L196.9,79.3L196.9,79.3z"/>
		<path class="st0" d="M172.1,89.2V82h4.1c2.8,0,4.5,1.3,4.5,3.6c0,2.2-1.7,3.6-4.6,3.6H172.1L172.1,89.2z M169.6,79.6v18.2h2.5
			v-6.2h4.1c4,0,7.2-2,7.2-6.1c0-3.7-2.8-5.9-7-5.9H169.6L169.6,79.6z"/>
		<path class="st0" d="M154.8,95.5c-3.8,0-6.7-2.9-6.7-6.9c0-4,2.9-6.9,6.6-6.9c3.7,0,6.6,3,6.6,7C161.3,92.7,158.5,95.5,154.8,95.5
			L154.8,95.5L154.8,95.5z M154.8,79.3c-5.3,0-9.4,4.1-9.4,9.4c0,5.4,4.1,9.3,9.3,9.3c5.3,0,9.3-4.1,9.3-9.3
			C164,83.3,159.9,79.3,154.8,79.3L154.8,79.3L154.8,79.3z"/>
		<path class="st0" d="M129,82h5.1c2.7,0,4.2,1.2,4.2,3.2c0,2-1.6,3.3-4.3,3.3H129V82L129,82z M133.8,90.9l5.3,6.8h3.1l-5.6-7.3
			c2.8-0.7,4.6-2.5,4.6-5.3c0-3.4-2.8-5.6-6.8-5.6h-7.7v18.2h2.5v-6.8H133.8L133.8,90.9z"/>
		<path class="st0" d="M111.5,77.3l3.1-3.1h3.1l-3.1,3.1H111.5z M109.5,89.7h9.4v-2.4h-9.4V82H120v-2.4h-13.2v18.2h13.4v-2.4h-10.7
			V89.7z"/>
		<path class="st0" d="M95.4,90.8c-1.1-0.7-2.4-1-3.7-1c-1.3,0-2.6,0.3-3.7,1l3.7-8.7L95.4,90.8z M85.6,96.3
			c1.2-2.8,3.4-4.1,6.1-4.1c2.7,0,4.9,1.3,6.1,4.1l0.6,1.4h3l-8.2-18.3h-3.1l-8.2,18.3H85L85.6,96.3L85.6,96.3z"/>
	</g>
	<g>
		<path class="st0" d="M172.7,65.8c0-2.7-1.9-4.1-4.5-5l-2.6-0.9c-2-0.6-2.7-1.3-2.7-2.2c0-1.1,1.1-1.7,2.8-1.7c1.5,0,3,0.5,4.5,1.6
			l1.9-2.8c-1.9-1.4-4-2.1-6.4-2.1c-3.8,0-6.7,2-6.7,5.3c0,2.8,2.1,4.4,4.8,5.3l2.7,0.9c1.8,0.6,2.4,1.2,2.4,2.1
			c0,1.2-1.2,1.9-2.9,1.9c-1.7,0-3.5-0.6-5.2-2.1l-2.2,2.8c2,1.7,4.5,2.6,7.3,2.6C170,71.3,172.7,69.1,172.7,65.8L172.7,65.8
			L172.7,65.8z"/>
		<polygon class="st0" points="148.1,71.1 152,71.1 152,52.9 148.1,52.9 148.1,71.1 		"/>
		<path class="st0" d="M130,56.2h4c2.2,0,3.5,1,3.5,2.8c0,1.8-1.3,2.8-3.4,2.8h-4V56.2L130,56.2z M133.5,65.1l4.4,5.9h4.6l-5.1-6.6
			c2.3-1,4-3,4-5.6c0-3.7-2.8-6-7.1-6h-8.1v18.2h3.8v-5.9H133.5L133.5,65.1z"/>
		<path class="st0" d="M110.6,63.7c-1,0-2.3,0.2-3.4,1l3.4-8.7l3.4,8.7C113,63.9,111.7,63.7,110.6,63.7L110.6,63.7L110.6,63.7z
			 M116.6,71.1h4.2l-7.9-18.3h-4.6l-7.8,18.3h4l0.2-0.6c1-2.5,3.1-3.9,5.8-3.9c2.7,0,4.7,1.4,5.8,3.9L116.6,71.1L116.6,71.1z"/>
		<path class="st0" d="M94.1,59.2c0,1.8-1.4,2.9-3.6,2.9h-3.2v-6h3.2C92.7,56.2,94.1,57.3,94.1,59.2L94.1,59.2L94.1,59.2z
			 M98.1,59.1c0-3.9-3.1-6.2-7.4-6.2h-7.3v18.2h3.8v-5.6h3.4C95,65.5,98.1,63.1,98.1,59.1L98.1,59.1L98.1,59.1z"/>
	</g>
	<g>
		<g>
			<g>
				<path class="st0" d="M31.6,0v86.9c0.6,0,1.2,0,1.8,0V0H31.6L31.6,0z"/>
				<path class="st0" d="M23.3,31.1l-1.7,1.1l5.3,55.2c0.6-0.1,1.3-0.2,1.8-0.2L23.3,31.1L23.3,31.1z"/>
				<path class="st0" d="M17.5,55l-1.6,1.2l6.3,32.2c0.5-0.2,1.2-0.3,1.7-0.5L17.5,55L17.5,55z"/>
				<path class="st0" d="M12.8,66l-1.5,1.3L18,90c0.5-0.2,1.2-0.5,1.7-0.7L12.8,66L12.8,66z"/>
				<path class="st0" d="M8.8,73.5l-1.3,1.4l6.7,17.2c0.5-0.3,1.1-0.6,1.5-0.9L8.8,73.5L8.8,73.5z"/>
				<path class="st0" d="M5,79.4l-1.3,1.3l6.9,14c0.5-0.4,1-0.8,1.4-1.1L5,79.4L5,79.4z"/>
				<path class="st0" d="M1.2,84.4L0,85.7l7.6,12c0.4-0.4,0.9-1,1.2-1.3L1.2,84.4L1.2,84.4z"/>
				<path class="st0" d="M36.5,87.1c0.5,0,1.2,0.1,1.8,0.2l5.3-55.2l-1.7-1.1L36.5,87.1L36.5,87.1z"/>
				<path class="st0" d="M41.1,87.9c0.6,0.1,1.2,0.3,1.7,0.5l6.3-32.2L47.6,55L41.1,87.9L41.1,87.9z"/>
				<path class="st0" d="M45.4,89.3c0.5,0.2,1.2,0.5,1.7,0.7l6.7-22.7L52.3,66L45.4,89.3L45.4,89.3z"/>
				<path class="st0" d="M49.4,91.2c0.5,0.3,1.1,0.6,1.5,0.9l6.7-17.2l-1.3-1.4L49.4,91.2L49.4,91.2z"/>
				<path class="st0" d="M53.1,93.6c0.4,0.3,0.9,0.7,1.4,1.1l6.9-14l-1.3-1.3L53.1,93.6L53.1,93.6z"/>
				<path class="st0" d="M56.3,96.4c0.4,0.4,0.9,0.9,1.2,1.3l7.6-12l-1.2-1.3L56.3,96.4L56.3,96.4z"/>
			</g>
		</g>
	</g>
</g>
</svg>
